<?xml version="1.0" encoding="UTF-8"?>
<svg id="Layer_1" data-name="Layer 1" xmlns="http://www.w3.org/2000/svg" viewBox="0 0 1000 1000">
  <defs>
    <style>
      .cls-1 {
        fill: #dd5826;
        stroke-width: 0px;
      }
    </style>
  </defs>
  <g>
    <path class="cls-1" d="M676.35,503.39l-69.86,69.86c-9.13,9.13-23.86,9.13-32.99,0l-57.03-57.03c-1.5-1.56-3.24-2.83-5.03-3.81-2.72-1.56-5.66-2.49-8.67-2.83-1.85-.23-3.7-.23-5.55,0-2.95.35-5.89,1.27-8.61,2.77-1.85,1.04-3.52,2.31-5.08,3.87l-27.97,28.02-29.07,29.01c-9.13,9.13-23.86,9.13-32.99,0l-69.8-69.8c-9.13-9.13-9.13-23.86,0-32.99,4.51-4.57,10.52-6.82,16.47-6.82s11.96,2.25,16.47,6.82l36.87,36.87c7.8,7.8,19.65,8.96,28.6,3.47,1.56-.98,3.06-2.14,4.39-3.47l57.03-57.03c9.07-9.07,23.86-9.07,32.94,0l57.03,57.03c1.33,1.33,2.83,2.48,4.39,3.47,8.96,5.49,20.8,4.33,28.6-3.47l36.87-36.87c9.13-9.13,23.86-9.13,32.99,0s9.07,23.86,0,32.94Z"/>
    <path class="cls-1" d="M658.09,430.59l-71.54,71.54c-.87-.23-1.73-.64-2.49-1.1-.92-.58-1.73-1.21-2.43-1.85l-53.91-53.91c.12-2.14.12-4.22.12-6.3,0-1.27-.75-2.14-1.73-2.83-1.79-1.33-3.64-2.66-5.43-4.04-1.85-1.44-3.64-2.95-5.49-4.39-1.68-1.27-3.29-2.54-5.03-3.76-1.62-1.04-1.68-1.16-1.33-3,1.16-6.36,2.37-12.65,3.47-18.95,1.1-6.36,2.08-12.71,3.24-19.3.92.17,1.96.29,2.95.58,3.81.81,7.63,1.73,11.38,2.54,4.16.92,8.32,1.85,12.42,2.72,4.28.92,8.44,1.91,12.65,2.83,2.89.64,5.72,1.16,8.61,1.85,1.33.29,2.72-1.04,2.66-2.31,0-4.56.06-9.07-.06-13.64,0-.69-.52-1.5-1.04-1.91-3-2.2-6.07-4.28-9.13-6.41-2.31-1.62-4.62-3.35-6.99-4.97-1.33-.98-2.72-1.85-4.1-2.77-1.1-.81-2.25-1.56-3.35-2.37-2.37-1.68-4.74-3.41-7.11-5.08-2.31-1.62-4.68-3.18-6.99-4.8-2.37-1.68-4.74-3.41-7.11-5.08-1.33-.92-2.72-1.85-4.1-2.72-.75-.46-1.04-1.04-1.04-1.91,0-6.7-.46-20.69-1.73-27.27-.81-4.1-1.96-8.03-3.87-11.73-1.1-2.2-2.66-4.28-4.74-5.66-2.6-1.79-5.37-2.31-8.38-.69-2.14,1.16-3.64,2.77-4.91,4.8-3.06,4.68-4.33,10-5.26,15.37-.98,5.84-1.27,19.13-1.33,25.08,0,.92-.29,1.56-1.1,2.08-1.33.81-2.66,1.68-3.93,2.6-2.37,1.68-4.74,3.41-7.11,5.08-2.31,1.62-4.62,3.12-6.93,4.74-2.37,1.62-4.68,3.35-7.05,5.03-1.33.92-2.77,1.79-4.1,2.77-1.27.87-2.54,1.73-3.81,2.66-1.56,1.1-3.18,2.2-4.74,3.29-1.1.69-2.14,1.44-3.18,2.14-2.31,1.73-4.68,3.41-6.99,5.08-.75.52-1.73.81-1.96,1.85-.06.46-.29.98-.29,1.44,0,4.16.12,8.32,0,12.48-.06,2.02,1.39,3.24,3.47,2.77,6.53-1.5,13.12-2.89,19.65-4.39,6.07-1.33,12.08-2.72,18.14-4.1l8.67-1.91c.69-.12.92.12,1.1.81,1.1,6.82,2.25,13.69,3.41,20.57.92,5.49,1.96,10.98,2.95,16.53.06.46.23.92.17,1.39,0,.46-.23.98-.58,1.27-3.58,2.83-7.28,5.61-10.86,8.38-2.02,1.5-3.99,3-5.95,4.45-1.27.92-1.91,2.08-1.79,3.7.17,1.79.06,3.58.17,5.37l-54.03,53.97c-.64.64-1.39,1.27-2.2,1.79-.81.52-1.73.87-2.66,1.16l-71.54-71.54c-8.03-8.09-8.03-21.15,0-29.24l143.48-143.48c4.04-4.04,9.36-6.01,14.62-6.01s10.63,1.96,14.62,6.01l143.48,143.48c8.03,8.09,8.03,21.15,0,29.24Z"/>
    <path class="cls-1" d="M536.34,552.4l-21.73,21.67c-.98.98-2.08,1.85-3.18,2.6-2.66,1.73-5.61,2.83-8.67,3.18-.23.06-.46.12-.69.12-1.39.17-2.77.17-4.16,0-.23,0-.46-.06-.69-.12-3-.35-5.95-1.44-8.61-3.18l-.06-.06c-1.1-.75-2.2-1.56-3.18-2.54l-21.67-21.67h.06l27.91-27.97c.81-.81,1.68-1.5,2.54-1.96,1.33-.75,2.83-1.21,4.39-1.44.46,0,.92-.06,1.39-.06s.92.06,1.44.12c1.56.17,2.95.64,4.45,1.44.87.52,1.62,1.1,2.43,1.85l28.03,28.03Z"/>
  </g>
  <g>
    <path class="cls-1" d="M233.55,725.95c-5.87,0-9.68-2.76-11.47-8.34l-21.41-67.06c-2.21-6.93,1.16-11.42,8.44-11.42h5.19c6.03,0,9.68,2.9,11.23,8.69l11.86,44.14,11.38-44.1c1.5-5.83,5.2-8.72,11.23-8.72h1.28c6.03,0,9.73,3.01,11.22,8.81l11.34,44.02,12.01-44.13c1.58-5.8,5.18-8.69,11.21-8.69h5.27c7.28,0,10.72,4.41,8.46,11.45l-21.53,67.01c-1.81,5.64-5.62,8.36-11.48,8.36h-4.73c-6.03,0-9.72-2.93-11.23-8.81l-11.21-43.45-11.17,43.45c-1.52,5.91-5.21,8.81-11.24,8.81h-4.65Z"/>
    <path class="cls-1" d="M352.1,726.92c-17.12,0-28.51-12.93-28.51-35.29s11.27-35.19,28.47-35.19c8.33,0,17.02,4.18,20.16,11.44l-.02-1.32c-.12-6.24,3.75-9.23,10.14-9.23h3.08c6.56,0,10.11,3.55,10.11,10.1v48.28c0,6.56-3.56,10.11-10.11,10.11h-3.08c-6.31,0-10.26-2.88-10.14-8.88l.02-1.12c-3.1,7.02-11.83,11.09-20.12,11.09h0ZM372.99,691.55c0-10.14-5.22-16.58-13.08-16.58s-13.09,6.48-13.09,16.58,5.26,16.7,13.16,16.7,13-6.44,13-16.7Z"/>
    <path class="cls-1" d="M424.38,738.36l5.21-12.56-22.59-56.77c-2.78-6.99.44-11.62,7.88-11.62h4.25c5.91,0,9.55,2.82,11.4,8.44l11.51,34.9,11.43-34.9c1.84-5.62,5.5-8.44,11.41-8.44h4.18c7.52,0,10.77,4.68,8.04,11.61l-28.01,71.2c-2.17,5.51-5.98,7.92-11.72,7.92h-4.5c-7.53,0-10.91-3.95-8.49-9.78Z"/>
    <path class="cls-1" d="M493.29,715.83v-41.24h-2.24c-5.04,0-8.48-3.37-8.48-8.74s3.6-8.61,8.48-8.61h2.23v-2.1c0-16.48,9.6-24.83,28.4-24.83,1.59,0,3.36.11,5.01.27,6.76.67,9.57,3.72,8.95,8.81-.65,5.3-2.86,7.53-6.97,7.48-1.13-.01-2-.04-3.04-.04-5.63,0-8.75,2.6-8.75,8.34v2.07h6.9c6.55,0,10.11,3.03,10.11,8.61s-3.56,8.74-10.11,8.74h-6.9v41.24c0,6.55-3.56,10.11-10.11,10.11h-3.37c-6.56,0-10.11-3.56-10.11-10.11Z"/>
    <path class="cls-1" d="M565.76,726.92c-17.12,0-28.51-12.93-28.51-35.29s11.27-35.19,28.47-35.19c8.33,0,17.02,4.18,20.16,11.44l-.02-1.32c-.12-6.24,3.75-9.23,10.14-9.23h3.08c6.55,0,10.11,3.55,10.11,10.1v48.28c0,6.56-3.56,10.11-10.11,10.11h-3.08c-6.31,0-10.26-2.88-10.14-8.88l.02-1.12c-3.1,7.02-11.83,11.09-20.12,11.09h0ZM586.65,691.55c0-10.14-5.22-16.58-13.08-16.58s-13.09,6.48-13.09,16.58,5.26,16.7,13.16,16.7,13-6.44,13-16.7Z"/>
    <path class="cls-1" d="M668.63,666.91l-.18,1.71c-.66,6.14-4.26,7.9-10.24,9.31-6.85,1.59-10.67,6.75-10.67,17.36v20.55c0,6.55-3.56,10.11-10.11,10.11h-3.09c-6.55,0-10.11-3.56-10.11-10.11v-48.4c0-6.55,3.56-10.11,10.11-10.11h3.09c6.55,0,10.11,2.83,10.11,9.04,1.86-4.61,6.18-9.59,13.78-9.59,5.76,0,8.03,3.06,7.31,10.13Z"/>
    <path class="cls-1" d="M672.69,691.63c0-21.11,14.57-35.19,35.74-35.19,20,0,32.79,11.07,34.46,29.96.6,6.76-2.82,10.11-10.12,10.11h-36.77c.15,9.04,5.55,14.46,14.42,14.46,4.89,0,8.38-1.43,11.76-4.02,3.42-2.63,5.38-3.97,10.37-2.79l1.86.44c6.84,1.62,7.78,5.48,3.21,10.94-5.76,6.89-15.63,11.3-28.67,11.3-21.93,0-36.26-13.65-36.26-35.21ZM709.08,671.21c-6.99,0-12.15,4.35-12.8,11.95h25.42c-.47-7.3-5.44-11.95-12.61-11.95Z"/>
    <path class="cls-1" d="M799.87,666.91l-.18,1.71c-.66,6.14-4.26,7.9-10.24,9.31-6.85,1.59-10.67,6.75-10.67,17.36v20.55c0,6.55-3.56,10.11-10.11,10.11h-3.09c-6.55,0-10.11-3.56-10.11-10.11v-48.4c0-6.55,3.56-10.11,10.11-10.11h3.09c6.55,0,10.11,2.83,10.11,9.04,1.86-4.61,6.18-9.59,13.78-9.59,5.76,0,8.03,3.06,7.31,10.13Z"/>
  </g>
</svg>