<?xml version="1.0" encoding="UTF-8"?>
<svg id="Layer_1" data-name="Layer 1" xmlns="http://www.w3.org/2000/svg" viewBox="0 0 1000 1000">
  <defs>
    <style>
      .cls-1 {
        fill: #dd5826;
        stroke-width: 0px;
      }
    </style>
  </defs>
  <g>
    <path class="cls-1" d="M266.48,590.34l-32.58,32.58c-4.26,4.26-11.13,4.26-15.39,0l-26.6-26.6c-.7-.73-1.51-1.32-2.34-1.78-1.27-.73-2.64-1.16-4.04-1.32-.86-.11-1.72-.11-2.59,0-1.37.16-2.75.59-4.02,1.29-.86.49-1.64,1.08-2.37,1.81l-13.04,13.07-13.56,13.53c-4.26,4.26-11.13,4.26-15.39,0l-32.56-32.56c-4.26-4.26-4.26-11.13,0-15.39,2.1-2.13,4.91-3.18,7.68-3.18s5.58,1.05,7.68,3.18l17.19,17.19c3.64,3.64,9.16,4.18,13.34,1.62.73-.46,1.43-1,2.05-1.62l26.6-26.6c4.23-4.23,11.13-4.23,15.36,0l26.6,26.6c.62.62,1.32,1.16,2.05,1.62,4.18,2.56,9.7,2.02,13.34-1.62l17.19-17.19c4.26-4.26,11.13-4.26,15.39,0s4.23,11.13,0,15.36Z"/>
    <path class="cls-1" d="M257.96,556.38l-33.37,33.37c-.4-.11-.81-.3-1.16-.51-.43-.27-.81-.57-1.13-.86l-25.15-25.15c.05-1,.05-1.97.05-2.94,0-.59-.35-1-.81-1.32-.84-.62-1.7-1.24-2.53-1.89-.86-.67-1.7-1.37-2.56-2.05-.78-.59-1.54-1.19-2.34-1.75-.75-.49-.78-.54-.62-1.4.54-2.96,1.1-5.9,1.62-8.84.51-2.96.97-5.93,1.51-9,.43.08.92.13,1.37.27,1.78.38,3.56.81,5.31,1.19,1.94.43,3.88.86,5.79,1.27,1.99.43,3.93.89,5.9,1.32,1.35.3,2.67.54,4.02.86.62.13,1.27-.49,1.24-1.08,0-2.13.03-4.23-.03-6.36,0-.32-.24-.7-.49-.89-1.4-1.02-2.83-1.99-4.26-2.99-1.08-.75-2.16-1.56-3.26-2.32-.62-.46-1.27-.86-1.91-1.29-.51-.38-1.05-.73-1.56-1.1-1.1-.78-2.21-1.59-3.31-2.37-1.08-.75-2.18-1.48-3.26-2.24-1.1-.78-2.21-1.59-3.31-2.37-.62-.43-1.27-.86-1.91-1.27-.35-.22-.49-.49-.49-.89,0-3.13-.22-9.65-.81-12.72-.38-1.91-.92-3.75-1.81-5.47-.51-1.02-1.24-1.99-2.21-2.64-1.21-.84-2.51-1.08-3.91-.32-1,.54-1.7,1.29-2.29,2.24-1.43,2.18-2.02,4.66-2.45,7.17-.46,2.72-.59,8.92-.62,11.7,0,.43-.13.73-.51.97-.62.38-1.24.78-1.83,1.21-1.11.78-2.21,1.59-3.32,2.37-1.08.75-2.16,1.46-3.23,2.21-1.11.75-2.18,1.56-3.29,2.34-.62.43-1.29.84-1.91,1.29-.59.4-1.19.81-1.78,1.24-.73.51-1.48,1.02-2.21,1.54-.51.32-1,.67-1.48,1-1.08.81-2.18,1.59-3.26,2.37-.35.24-.81.38-.92.86-.03.22-.13.46-.13.67,0,1.94.05,3.88,0,5.82-.03.94.65,1.51,1.62,1.29,3.05-.7,6.12-1.35,9.16-2.05,2.83-.62,5.63-1.27,8.46-1.91l4.04-.89c.32-.05.43.05.51.38.51,3.18,1.05,6.39,1.59,9.59.43,2.56.92,5.12,1.37,7.71.03.22.11.43.08.65,0,.22-.11.46-.27.59-1.67,1.32-3.4,2.61-5.07,3.91-.94.7-1.86,1.4-2.78,2.08-.59.43-.89.97-.84,1.72.08.84.03,1.67.08,2.51l-25.2,25.17c-.3.3-.65.59-1.02.84-.38.24-.81.4-1.24.54l-33.37-33.37c-3.75-3.77-3.75-9.86,0-13.64l66.92-66.92c1.89-1.89,4.37-2.8,6.82-2.8s4.96.92,6.82,2.8l66.92,66.92c3.75,3.77,3.75,9.86,0,13.64Z"/>
    <path class="cls-1" d="M201.17,613.19l-10.13,10.11c-.46.46-.97.86-1.48,1.21-1.24.81-2.61,1.32-4.04,1.48-.11.03-.22.05-.32.05-.65.08-1.29.08-1.94,0-.11,0-.22-.03-.32-.05-1.4-.16-2.78-.67-4.02-1.48l-.03-.03c-.51-.35-1.02-.73-1.48-1.19l-10.11-10.11h.03l13.02-13.04c.38-.38.78-.7,1.19-.92.62-.35,1.32-.57,2.05-.67.22,0,.43-.03.65-.03s.43.03.67.05c.73.08,1.37.3,2.08.67.4.24.75.51,1.13.86l13.07,13.07Z"/>
  </g>
  <g>
    <path class="cls-1" d="M334.75,586.29c-5.87,0-9.68-2.76-11.47-8.34l-21.41-67.06c-2.21-6.93,1.16-11.42,8.44-11.42h5.19c6.03,0,9.68,2.9,11.23,8.69l11.86,44.14,11.38-44.1c1.5-5.83,5.2-8.72,11.23-8.72h1.28c6.03,0,9.73,3.01,11.22,8.81l11.34,44.02,12.01-44.13c1.58-5.8,5.18-8.69,11.21-8.69h5.27c7.28,0,10.72,4.41,8.46,11.45l-21.53,67.01c-1.81,5.64-5.62,8.36-11.48,8.36h-4.73c-6.03,0-9.72-2.93-11.23-8.81l-11.21-43.45-11.17,43.45c-1.52,5.91-5.21,8.81-11.24,8.81h-4.65Z"/>
    <path class="cls-1" d="M453.3,587.26c-17.12,0-28.51-12.93-28.51-35.29s11.27-35.19,28.47-35.19c8.33,0,17.02,4.18,20.16,11.44l-.02-1.32c-.12-6.24,3.75-9.23,10.14-9.23h3.08c6.56,0,10.11,3.55,10.11,10.1v48.28c0,6.56-3.56,10.11-10.11,10.11h-3.08c-6.31,0-10.26-2.88-10.14-8.88l.02-1.12c-3.1,7.02-11.83,11.09-20.12,11.09h0ZM474.19,551.9c0-10.14-5.22-16.58-13.08-16.58s-13.09,6.48-13.09,16.58,5.26,16.7,13.16,16.7,13-6.44,13-16.7Z"/>
    <path class="cls-1" d="M525.59,598.7l5.21-12.56-22.59-56.77c-2.78-6.99.44-11.62,7.88-11.62h4.25c5.91,0,9.55,2.82,11.4,8.44l11.51,34.9,11.43-34.9c1.84-5.62,5.5-8.44,11.41-8.44h4.18c7.52,0,10.77,4.68,8.04,11.61l-28.01,71.2c-2.17,5.51-5.98,7.92-11.72,7.92h-4.5c-7.53,0-10.91-3.95-8.49-9.78Z"/>
    <path class="cls-1" d="M594.49,576.17v-41.24h-2.24c-5.04,0-8.48-3.37-8.48-8.74s3.6-8.61,8.48-8.61h2.23v-2.1c0-16.48,9.6-24.83,28.4-24.83,1.59,0,3.36.11,5.01.27,6.76.67,9.57,3.72,8.95,8.81-.65,5.3-2.86,7.53-6.97,7.48-1.13-.01-2-.04-3.04-.04-5.63,0-8.75,2.6-8.75,8.34v2.07h6.9c6.55,0,10.11,3.03,10.11,8.61s-3.56,8.74-10.11,8.74h-6.9v41.24c0,6.55-3.56,10.11-10.11,10.11h-3.37c-6.56,0-10.11-3.56-10.11-10.11Z"/>
    <path class="cls-1" d="M666.96,587.26c-17.12,0-28.51-12.93-28.51-35.29s11.27-35.19,28.47-35.19c8.33,0,17.02,4.18,20.16,11.44l-.02-1.32c-.12-6.24,3.75-9.23,10.14-9.23h3.08c6.55,0,10.11,3.55,10.11,10.1v48.28c0,6.56-3.56,10.11-10.11,10.11h-3.08c-6.31,0-10.26-2.88-10.14-8.88l.02-1.12c-3.1,7.02-11.83,11.09-20.12,11.09h0ZM687.85,551.9c0-10.14-5.22-16.58-13.08-16.58s-13.09,6.48-13.09,16.58,5.26,16.7,13.16,16.7,13-6.44,13-16.7Z"/>
    <path class="cls-1" d="M769.83,527.25l-.18,1.71c-.66,6.14-4.26,7.9-10.24,9.31-6.85,1.59-10.67,6.75-10.67,17.36v20.55c0,6.55-3.56,10.11-10.11,10.11h-3.09c-6.55,0-10.11-3.56-10.11-10.11v-48.4c0-6.55,3.56-10.11,10.11-10.11h3.09c6.55,0,10.11,2.83,10.11,9.04,1.86-4.61,6.18-9.59,13.78-9.59,5.76,0,8.03,3.06,7.31,10.13Z"/>
    <path class="cls-1" d="M773.89,551.98c0-21.11,14.57-35.19,35.74-35.19,20,0,32.79,11.07,34.46,29.96.6,6.76-2.82,10.11-10.12,10.11h-36.77c.15,9.04,5.55,14.46,14.42,14.46,4.89,0,8.38-1.43,11.76-4.02,3.42-2.63,5.38-3.97,10.37-2.79l1.86.44c6.84,1.62,7.78,5.48,3.21,10.94-5.76,6.89-15.63,11.3-28.67,11.3-21.93,0-36.26-13.65-36.26-35.21ZM810.28,531.55c-6.99,0-12.15,4.35-12.8,11.95h25.42c-.47-7.3-5.44-11.95-12.61-11.95Z"/>
    <path class="cls-1" d="M901.07,527.25l-.18,1.71c-.66,6.14-4.26,7.9-10.24,9.31-6.85,1.59-10.67,6.75-10.67,17.36v20.55c0,6.55-3.56,10.11-10.11,10.11h-3.09c-6.55,0-10.11-3.56-10.11-10.11v-48.4c0-6.55,3.56-10.11,10.11-10.11h3.09c6.55,0,10.11,2.83,10.11,9.04,1.86-4.61,6.18-9.59,13.78-9.59,5.76,0,8.03,3.06,7.31,10.13Z"/>
  </g>
</svg>